# xmcd
#
# Track frame offsets: 
#        182
#        17530
#        36005
#        52095
#        66717
#        84230
#        97507
#        108385
#        127120
#        147295
#
# Disc length: 2301 seconds
#
# Revision: 3
# Processed by: cddbd v1.5.2PL0 Copyright (c) Steve Scherf et al.
# Submitted via: ExactAudioCopy v1.3
#
DISCID=8208fb0a
DTITLE=Kathy Mattea - Good News
DYEAR=1993
DGENRE=Folk
TTITLE0=What A Wonderful Beginning
TTITLE1=There's a New Kid in Town
TTITLE2=Brightest and Best
TTITLE3=Mary, Did You Know
TTITLE4=The Star
TTITLE5=Emmanuel
TTITLE6=Somebody Talkin' About Jesus
TTITLE7=Nothing But A Child
TTITLE8=Christ Child's Lullaby
TTITLE9=Good News
EXTD=YEAR: 1993
EXTT0=
EXTT1=
EXTT2=
EXTT3=
EXTT4=
EXTT5=
EXTT6=
EXTT7=
EXTT8=
EXTT9=
PLAYORDER=
